<svg width="25" height="25" viewBox="0 0 25 25" fill="none" xmlns="http://www.w3.org/2000/svg">
    <path fill-rule="evenodd" clip-rule="evenodd" d="M16.5 8.61182C16.5 10.821 14.7091 12.6118 12.5 12.6118C10.2909 12.6118 8.5 10.821 8.5 8.61182C8.5 6.40268 10.2909 4.61182 12.5 4.61182C14.7091 4.61182 16.5 6.40268 16.5 8.61182ZM15 8.61182C15 9.99253 13.8807 11.1118 12.5 11.1118C11.1193 11.1118 10 9.99253 10 8.61182C10 7.2311 11.1193 6.11182 12.5 6.11182C13.8807 6.11182 15 7.2311 15 8.61182Z" fill="#141C24"/>
    <path fill-rule="evenodd" clip-rule="evenodd" d="M4.5 18.3838V20.6118H20.5V18.3838C20.5 16.7164 19.4657 15.224 17.9045 14.6385L17.7669 14.5869C14.3711 13.3135 10.6289 13.3135 7.23315 14.5869L7.09551 14.6385C5.53429 15.224 4.5 16.7164 4.5 18.3838ZM7.75984 15.9914C10.816 14.8453 14.184 14.8453 17.2402 15.9914L17.3778 16.043C18.3536 16.4089 19 17.3417 19 18.3838V19.1118H6V18.3838C6 17.3417 6.64643 16.4089 7.62219 16.043L7.75984 15.9914Z" fill="#141C24"/>
</svg>
