<svg width="25" height="25" viewBox="0 0 25 25" fill="none" xmlns="http://www.w3.org/2000/svg">
    <path d="M12.5 17.6118C13.0523 17.6118 13.5 17.1641 13.5 16.6118C13.5 16.0595 13.0523 15.6118 12.5 15.6118C11.9477 15.6118 11.5 16.0595 11.5 16.6118C11.5 17.1641 11.9477 17.6118 12.5 17.6118Z" fill="#141C24"/>
    <path d="M13.5 12.6118C13.5 13.1641 13.0523 13.6118 12.5 13.6118C11.9477 13.6118 11.5 13.1641 11.5 12.6118C11.5 12.0595 11.9477 11.6118 12.5 11.6118C13.0523 11.6118 13.5 12.0595 13.5 12.6118Z" fill="#141C24"/>
    <path d="M12.5 9.61182C13.0523 9.61182 13.5 9.16409 13.5 8.61182C13.5 8.05954 13.0523 7.61182 12.5 7.61182C11.9477 7.61182 11.5 8.05954 11.5 8.61182C11.5 9.16409 11.9477 9.61182 12.5 9.61182Z" fill="#141C24"/>
    <path fill-rule="evenodd" clip-rule="evenodd" d="M2.5 14.6118V18.6118C2.5 19.7164 3.39543 20.6118 4.5 20.6118H20.5C21.6046 20.6118 22.5 19.7164 22.5 18.6118V14.6118C21.3954 14.6118 20.5 13.7164 20.5 12.6118C20.5 11.5072 21.3954 10.6118 22.5 10.6118V6.61182C22.5 5.50723 21.6046 4.61182 20.5 4.61182H4.5C3.39543 4.61182 2.5 5.50726 2.5 6.61182V10.6118C3.60457 10.6118 4.5 11.5072 4.5 12.6118C4.5 13.7164 3.60457 14.6118 2.5 14.6118ZM21 18.6118C21 18.888 20.7761 19.1118 20.5 19.1118H4.5C4.22385 19.1118 4 18.888 4 18.6118V15.775C5.18246 15.2133 6 14.008 6 12.6118C6 11.2156 5.18248 10.0104 4 9.44864V6.61182C4 6.33566 4.22385 6.11182 4.5 6.11182H20.5C20.7761 6.11182 21 6.33566 21 6.61182V9.44864C19.8175 10.0104 19 11.2156 19 12.6118C19 14.008 19.8175 15.2133 21 15.775V18.6118Z" fill="#141C24"/>
</svg>
